<svg width="103" height="45" viewBox="0 0 103 45" fill="none" xmlns="http://www.w3.org/2000/svg">
<path d="M52.4492 6.75122H55.9396L58.3904 20.7733H54.8398L54.4862 18.2235H49.7402L48.506 20.7733H45.0332L52.4456 6.75122H52.4492ZM50.9568 15.7515H54.1749L53.7223 12.3777C53.6233 11.6315 53.5278 10.3584 53.5278 10.3584H53.4889C53.4889 10.3584 52.9407 11.6527 52.6048 12.36L50.9568 15.7515Z" fill="#93928E"/>
<path d="M61.0143 10.7333H64.1511L62.2096 20.7733H59.0728L61.0143 10.7333ZM61.7781 6.75122H64.915L64.4234 9.33991H61.2866L61.7781 6.75122Z" fill="#93928E"/>
<path d="M63.7588 17.5159H66.74C66.8001 18.3399 67.2705 18.9871 68.5047 18.9871C69.3287 18.9871 69.8981 18.7112 69.8981 18.0252C69.8981 17.3391 68.9963 17.141 67.663 16.752C65.9761 16.2605 64.6818 15.5744 64.6818 13.792C64.6818 11.6171 66.5243 10.4395 69.0175 10.4395C71.2313 10.4395 73.1552 11.3801 73.2931 13.6576H70.4109C70.3331 12.9503 69.8026 12.48 68.9008 12.48C68.2536 12.48 67.5852 12.7169 67.5852 13.3252C67.5852 13.9335 68.3491 14.1103 69.7602 14.5028C71.3303 14.9555 72.8581 15.6416 72.8581 17.523C72.8581 19.857 71.1712 21.0913 68.4446 21.0913C66.0928 21.0913 63.8543 20.0303 63.7588 17.523" fill="#93928E"/>
<path d="M73.8762 17.0067L75.0716 10.7295H78.2084L77.0697 16.5753C76.8539 17.714 77.1298 18.4779 78.166 18.4779C79.2022 18.4779 80.0085 17.6539 80.2843 16.2817L81.3452 10.733H84.4821L82.5406 20.773H79.5417L79.8352 19.263H79.7751C79.0289 20.3628 78.0705 21.0666 76.6771 21.0666C74.5588 21.0666 73.3635 19.5777 73.8727 17.0067" fill="#93928E"/>
<path d="M84.5598 17.4771H87.8557L87.2086 20.773H83.9126L84.5598 17.4771Z" fill="#93928E"/>
<path d="M45.9951 32.567H49.4255C49.3866 34.017 50.5041 34.5863 52.0531 34.5863C53.2095 34.5863 54.3093 34.2115 54.3093 33.0763C54.3093 32.2523 53.4676 31.881 51.5438 31.1949C49.0329 30.3108 47.4451 29.409 47.4451 27.135C47.4451 24.2316 49.7013 22.7039 52.8205 22.7039C55.5471 22.7039 58.3515 23.7648 58.2136 27.0183H54.8787C54.8999 25.9185 54.0936 25.3102 52.7038 25.3102C51.8232 25.3102 50.7623 25.6639 50.7446 26.6435C50.7446 27.4851 51.5085 27.6832 53.7435 28.4471C56.1165 29.2711 57.8033 30.2719 57.8033 32.5847C57.8033 35.7605 55.1369 37.3094 51.9611 37.3094C48.7854 37.3094 45.882 36.0929 45.9987 32.5635" fill="#93928E"/>
<path d="M59.1329 33.9995L60.1125 28.9388H58.8394L59.2319 26.9372H60.5086L61.1168 23.7615H64.1971L63.5676 26.9372H65.3535L64.961 28.9388H63.175L62.2733 33.6246C62.1353 34.4097 62.3723 34.682 63.1149 34.682C63.3519 34.682 63.7444 34.6644 63.8611 34.6431L63.4085 36.9171C63.1927 36.9949 62.5668 37.0939 61.8984 37.0939C59.6633 37.0939 58.7014 36.132 59.1329 33.996" fill="#93928E"/>
<path d="M65.1698 33.2145L66.3652 26.9373H69.502L68.3632 32.783C68.1475 33.9218 68.4234 34.6856 69.4595 34.6856C70.4957 34.6856 71.302 33.8616 71.5779 32.4895L72.6353 26.9408H75.7721L73.8306 36.9808H70.8317L71.1252 35.4707H71.0651C70.3189 36.567 69.3605 37.2743 67.9672 37.2743C65.8488 37.2743 64.6535 35.7819 65.1628 33.2145" fill="#93928E"/>
<path d="M75.8533 32.8998C75.8533 29.8019 77.6781 26.6438 80.9316 26.6438C82.2861 26.6438 83.2055 27.2344 83.7572 28.2317H83.8173L84.8358 22.9553H87.9727L85.2673 36.9774H82.2648L82.4806 35.8209H82.4417C81.7945 36.6838 80.8326 37.2921 79.5984 37.2921C77.3244 37.2921 75.832 35.5663 75.8533 32.8998ZM83.2692 31.2943C83.2692 30.099 82.7599 29.038 81.5045 29.038C79.8176 29.038 79.0926 31.0786 79.0926 32.6664C79.0926 33.8016 79.5029 34.8237 80.7795 34.8237C82.4452 34.8237 83.2692 32.8609 83.2692 31.2943Z" fill="#93928E"/>
<path d="M88.6974 26.9373H91.8342L89.8927 36.9772H86.7559L88.6974 26.9373ZM89.4612 22.9587H92.5981L92.1065 25.5474H88.9697L89.4577 22.9587H89.4612Z" fill="#93928E"/>
<path d="M91.8911 32.6838C91.8911 29.3879 94.1474 26.6648 97.6379 26.6648C100.205 26.6648 102.462 28.1536 102.483 31.2339C102.483 34.5688 100.248 37.2954 96.7361 37.2954C94.1863 37.2954 91.8911 35.7853 91.8911 32.6874M99.3035 31.1349C99.3035 29.9785 98.8332 28.8998 97.5388 28.8998C95.7352 28.8998 95.0279 31.2127 95.0492 32.8218C95.0492 34.0171 95.5018 35.0568 96.7926 35.0568C98.6175 35.0568 99.3212 32.7829 99.3035 31.1349Z" fill="#93928E"/>
<path d="M20.872 1.69397C19.3372 0.470355 17.2649 -0.0459677 15.2137 0.477428C13.1873 0.99375 11.6277 2.41187 10.8568 4.19424C4.60435 7.63875 0.367676 14.2944 0.367676 21.9402C0.367676 33.1224 9.43515 42.1899 20.6174 42.1899C21.9365 42.1899 23.2238 42.0626 24.4722 41.8221L25.374 43.2791C25.7948 43.9581 26.8345 43.6894 26.8769 42.8972L26.9724 41.175C35.0426 38.5085 40.8672 30.9051 40.8672 21.9437C40.8672 10.8463 31.9376 1.83543 20.872 1.6975" fill="#93928E"/>
<path d="M23.892 23.1494C23.9309 23.1954 24.0051 23.1812 24.0264 23.1282L24.3482 22.3183C24.3729 22.2582 24.3163 22.1945 24.2562 22.2122L23.4181 22.4244C23.3615 22.4386 23.3403 22.5093 23.3792 22.5553L23.899 23.1529L23.892 23.1494Z" fill="#5100FF"/>
<path d="M27.082 23.7439L20.1965 25.643C20.1187 25.6642 20.0621 25.7349 20.0586 25.8163C20.0586 25.8976 20.1081 25.9719 20.1859 25.9966C20.2142 26.0072 20.918 26.2442 21.8657 26.3998C22.4033 26.4882 22.9019 26.5342 23.3616 26.5342C23.9982 26.5342 24.557 26.4493 25.0308 26.276C26.7425 25.6571 27.2836 24.048 27.3083 23.9773C27.3295 23.9101 27.3119 23.8394 27.2659 23.7899C27.2199 23.7404 27.1492 23.7192 27.082 23.7404M26.456 24.7553C26.1342 25.1868 25.6356 25.6607 24.9035 25.9259C23.9416 26.2725 22.7109 26.1735 21.7667 26.0037L21.6252 25.6324L26.4773 24.2956L26.456 24.7553Z" fill="#5100FF"/>
<path d="M23.6516 21.4521C23.7577 21.4238 23.8213 21.3177 23.7966 21.2116C23.7683 21.1055 23.6622 21.0419 23.5561 21.0666C23.45 21.0949 23.3863 21.201 23.4111 21.3106C23.4394 21.4167 23.5455 21.4804 23.6516 21.4556" fill="#5100FF"/>
<path d="M22.8239 21.7491C22.93 21.7208 22.9937 21.6147 22.9689 21.5051C22.9406 21.399 22.8345 21.3353 22.7285 21.3601C22.6224 21.3884 22.5587 21.4945 22.5835 21.6041C22.6117 21.7102 22.7178 21.7738 22.8275 21.7491" fill="#5100FF"/>
<path d="M22.9338 20.897C23.0399 20.8687 23.1036 20.7626 23.0788 20.653C23.0505 20.5469 22.9444 20.4833 22.8383 20.508C22.7322 20.5363 22.6686 20.6424 22.6933 20.752C22.7216 20.8581 22.8277 20.9218 22.9338 20.897Z" fill="#5100FF"/>
<path d="M22.3817 23.7369L19.3015 20.0766C19.2025 19.9564 19.0044 20.0413 19.0221 20.1969L19.5278 25.0171C19.5384 25.1267 19.6516 25.1903 19.7506 25.1444L22.3252 23.9844C22.4206 23.942 22.4489 23.8182 22.3817 23.7369ZM20.1997 22.4036C19.9699 22.4637 19.7329 22.3223 19.6763 22.0924C19.6162 21.8625 19.7577 21.6256 19.9876 21.569C20.2174 21.5089 20.4544 21.6504 20.511 21.8802C20.5711 22.1101 20.4296 22.3435 20.1997 22.4036Z" fill="#5100FF"/>
<path d="M24.4441 21.3354C24.5501 21.3071 24.6138 21.201 24.589 21.0949C24.5608 20.9888 24.4547 20.9252 24.3486 20.9499C24.2425 20.9782 24.1788 21.0843 24.2036 21.1939C24.2319 21.3 24.338 21.3637 24.4441 21.3389" fill="#5100FF"/>
<path d="M23.9384 20.6386C24.0445 20.6103 24.1081 20.5042 24.0834 20.3981C24.0551 20.292 23.949 20.2284 23.8429 20.2531C23.7368 20.2814 23.6696 20.3875 23.6979 20.4971C23.7262 20.6032 23.8323 20.6669 23.9384 20.6421" fill="#5100FF"/>
<path d="M19.5952 18.6901L18.895 17.951C18.8632 17.9192 18.8137 17.9227 18.7854 17.9581L17.2364 20.0057C17.2152 20.034 17.2187 20.0694 17.24 20.0976L17.5971 20.4937C17.6254 20.522 17.6679 20.5256 17.6997 20.4973L19.5917 18.7927C19.6235 18.7644 19.6235 18.7184 19.5952 18.6901Z" fill="#5100FF"/>
<path d="M27.372 18.0712L25.5967 16.7451C25.5542 16.7132 25.4977 16.7344 25.4835 16.784L25.2784 17.6292C25.2713 17.6645 25.289 17.6999 25.3208 17.714L27.2588 18.5345C27.3013 18.5522 27.3508 18.5239 27.3578 18.4779L27.4003 18.1384C27.4003 18.1137 27.3932 18.0889 27.372 18.0712Z" fill="#5100FF"/>
<path d="M26.9937 23.118C27.0892 23.118 27.1635 23.0296 27.1458 22.9341L26.4986 18.952C26.4703 18.7752 26.2192 18.7717 26.1839 18.9485L25.3882 22.9765C25.3669 23.0755 25.4483 23.171 25.5508 23.1675L26.9902 23.125L26.9937 23.118ZM26.343 20.0483C26.4632 20.0483 26.5587 20.1438 26.5587 20.264C26.5587 20.3843 26.4597 20.4798 26.343 20.4798C26.2263 20.4798 26.1273 20.3843 26.1273 20.264C26.1273 20.1438 26.2263 20.0483 26.343 20.0483Z" fill="#5100FF"/>
<path d="M21.0525 1.4711C19.4399 0.201511 17.272 -0.332493 15.1325 0.212121C13.3643 0.66125 11.879 1.77523 10.9453 3.34542C10.8074 3.57529 10.6872 3.81577 10.5775 4.05625C4.05278 7.69526 0 14.5807 0 22.0497C0 27.5489 2.14309 32.7157 6.02966 36.6022C9.91622 40.4888 15.0865 42.6319 20.5857 42.6319C21.8553 42.6319 23.1107 42.5152 24.3343 42.2924L25.0911 43.516C25.3069 43.8661 25.6676 44.0642 26.0566 44.0642C26.1556 44.0642 26.2546 44.0536 26.3537 44.0253C26.8488 43.8979 27.1883 43.4877 27.2166 42.9749L27.2944 41.5179C30.2155 40.5136 32.889 38.8514 35.1382 36.6058C39.0248 32.7192 41.1679 27.5489 41.1679 22.0533C41.1679 16.5576 39.0778 11.5111 35.2797 7.64221C31.4992 3.78748 26.4456 1.59841 21.0561 1.47817M19.065 9.29374C18.775 8.99314 18.4603 8.72083 18.1279 8.48035C18.4037 8.16561 18.7078 7.87562 19.0438 7.62453C19.1923 7.51136 19.2206 7.30271 19.1075 7.15418C18.9943 7.00565 18.7857 6.97736 18.6371 7.09053C18.4568 7.22845 18.2835 7.37344 18.1208 7.52551C17.6222 7.91098 17.2897 7.86501 16.5011 7.61392C15.2209 7.14004 13.8063 7.05162 12.4448 7.3982C11.8507 7.55026 11.2954 7.77306 10.7862 8.06305C10.4785 6.56006 10.7367 5.01816 11.5253 3.69199C12.367 2.27741 13.7073 1.27306 15.2987 0.866365C18.5911 0.028225 21.9508 2.02279 22.7925 5.31169C22.8243 5.44254 22.8561 5.57339 22.8773 5.70423C22.6475 5.7007 22.4141 5.70424 22.1806 5.72899C21.9968 5.74667 21.8588 5.90935 21.8765 6.09325C21.8907 6.27714 22.0569 6.41506 22.2408 6.39738C23.6801 6.2736 25.1265 6.66261 26.3148 7.49722C27.5172 8.34243 28.3765 9.5908 28.7408 11.0125C28.96 11.8789 28.9919 12.7559 28.8363 13.6259C28.2987 13.5481 27.503 13.5339 26.3324 13.6365C25.0912 13.7461 23.6271 13.9725 22.0463 14.2907C21.7704 14.2236 21.2612 14.0078 20.9323 13.3571C20.8969 13.0141 20.8403 12.6746 20.7519 12.3351C20.6458 11.9143 20.4973 11.504 20.3134 11.1115C20.2356 10.9453 20.034 10.871 19.8678 10.9488C19.7016 11.0266 19.6273 11.2282 19.7087 11.3944C19.8749 11.748 20.0057 12.1194 20.1047 12.4978C20.2886 13.2157 20.3382 13.9477 20.2604 14.6762C19.8289 14.7752 19.3904 14.8849 18.9483 14.9945C16.2076 15.6947 13.6755 16.5258 11.8118 17.3356C10.8746 17.7423 10.2345 18.0924 9.79598 18.393C9.00382 17.6079 8.44152 16.6283 8.16568 15.5391C7.32754 12.2467 9.3221 8.88704 12.611 8.04537C14.7612 7.49722 17.0493 8.15146 18.5841 9.75348C18.7114 9.88786 18.9236 9.8914 19.058 9.76409C19.1923 9.63677 19.1959 9.42459 19.0686 9.2902M20.5822 41.9635C15.2633 41.9635 10.2628 39.8911 6.50354 36.1319C2.74075 32.3691 0.671927 27.3686 0.671927 22.0497C0.671927 15.0865 4.31094 8.64657 10.231 5.03938C10.0648 5.64412 9.98341 6.26653 9.99049 6.89248C5.21274 10.2344 2.09005 15.7761 2.09005 22.0497C2.09005 32.263 10.3689 40.5419 20.5822 40.5419C21.4486 40.5419 22.3044 40.4817 23.139 40.365L23.9524 41.6771C22.849 41.8645 21.7244 41.96 20.5822 41.96M26.9513 35.4423L25.9081 35.3008L27.0008 34.4981L26.9513 35.4423ZM27.1494 31.7891L24.8825 31.4815L27.2625 29.7309L27.1494 31.7891ZM27.2873 29.25L24.352 31.4072L19.1181 30.6964C19.0155 30.6822 18.9236 30.7529 18.9094 30.8555C18.8953 30.9581 18.966 31.05 19.0686 31.0642L23.9206 31.7219L20.8545 33.9747C20.7731 34.0348 20.7555 34.1515 20.8156 34.2364C20.8509 34.2859 20.9075 34.3142 20.9641 34.3142C21.003 34.3142 21.0419 34.3035 21.0737 34.2788L24.4511 31.7962L27.1317 32.1605L27.0291 34.0136L25.3776 35.2266L21.4203 34.689C21.3178 34.6749 21.2258 34.7456 21.2117 34.8482C21.1975 34.9507 21.2682 35.0427 21.3708 35.0568L24.9462 35.5413L22.7076 37.1858C22.6262 37.2459 22.605 37.3626 22.6687 37.4475C22.704 37.497 22.7606 37.5253 22.8172 37.5253C22.8561 37.5253 22.895 37.5146 22.9268 37.4899L25.4766 35.6191L26.9301 35.8171L26.7674 38.7842L26.336 39.099L23.7544 38.7489C23.6518 38.7347 23.5599 38.8055 23.5457 38.908C23.5316 39.0106 23.6023 39.1025 23.7049 39.1167L25.9045 39.4173L24.5571 40.4039C24.4758 40.4641 24.4546 40.5808 24.5182 40.6656C24.5536 40.7151 24.6102 40.7434 24.6703 40.7434C24.7092 40.7434 24.7481 40.7328 24.7799 40.7081L26.4385 39.4915L26.7285 39.5304L26.5411 42.9431C26.527 43.2013 26.3466 43.3392 26.1804 43.3816C26.0142 43.4241 25.7914 43.3887 25.657 43.1694L11.2848 19.9208C11.2848 19.9208 11.2778 19.9102 11.2707 19.8996L11.1752 19.7298H10.9807C9.88439 19.7192 9.62623 19.5353 9.58026 19.4929C9.59794 19.4257 9.69696 19.2913 9.95159 19.0968C10.3229 18.8103 11.0161 18.3966 12.2609 17.8661C14.0716 17.0952 16.5011 16.303 19.1039 15.6417C21.7068 14.9768 24.2176 14.5065 26.1768 14.319C27.7541 14.167 28.5958 14.2342 29.0025 14.3332C29.006 14.3332 29.0095 14.3332 29.0131 14.3367C29.0166 14.3367 29.0237 14.3367 29.0272 14.3367C29.1864 14.3792 29.2748 14.4216 29.3066 14.457C29.2854 14.5171 29.1475 14.8 28.1891 15.334L28.0193 15.4295V15.624C28.0193 15.624 28.0193 15.6417 28.0193 15.6523L27.2802 29.25H27.2873ZM34.6643 36.1284C32.5566 38.2361 30.0599 39.8133 27.3333 40.7929L27.4181 39.2369C34.247 36.5174 39.0778 29.8476 39.0778 22.0497C39.0778 12.618 32.0191 4.8378 22.895 3.7026C22.605 3.14031 22.2408 2.62752 21.8199 2.17839C26.7427 2.47899 31.3259 4.5655 34.7987 8.10902C38.4731 11.8541 40.4924 16.8052 40.4924 22.0533C40.4924 27.3014 38.4201 32.3726 34.6608 36.1319" fill="#5100FF"/>
</svg>
