<svg width="64" height="64" viewBox="0 0 64 64" xmlns="http://www.w3.org/2000/svg">
  <rect width="64" height="64" rx="14" fill="#d9c9f7"/>
  <g transform="translate(14 14) scale(0.871)" fill="#000000">
    <polygon points="0 0 0 19.08 19.08 19.08 19.08 12.72 6.36 12.72 6.36 6.36 19.08 6.36 19.08 0 0 0"/>
    <polygon points="22.26 0 22.26 19.08 28.62 19.08 28.62 6.36 34.98 6.36 34.98 19.08 41.34 19.08 41.34 0 22.26 0"/>
    <polygon points="6.36 22.26 6.36 34.98 0 34.98 0 41.34 12.72 41.34 12.72 28.62 19.08 28.62 19.08 22.26 6.36 22.26"/>
    <polygon points="28.62 34.98 28.62 22.26 22.26 22.26 22.26 41.34 41.34 41.34 41.34 34.98 28.62 34.98"/>
  </g>
</svg>
